<svg width="28" height="28" viewBox="0 0 28 28" fill="none" xmlns="http://www.w3.org/2000/svg">
<path d="M13.6867 26.1224C20.2792 26.1224 25.6235 20.7971 25.6235 14.2279C25.6235 7.65865 20.2792 2.33325 13.6867 2.33325C7.09426 2.33325 1.75 7.65865 1.75 14.2279C1.75 20.7971 7.09426 26.1224 13.6867 26.1224Z" fill="url(#paint0_radial_2249_22226)"/>
<path d="M13.6864 24.5776C19.4257 24.5776 24.0784 19.9438 24.0784 14.2278C24.0784 8.51171 19.4257 3.87793 13.6864 3.87793C7.94708 3.87793 3.29443 8.51171 3.29443 14.2278C3.29443 19.9438 7.94708 24.5776 13.6864 24.5776Z" fill="white"/>
<path d="M4.86719 14.8457C5.0098 16.9661 5.91813 18.9624 7.42305 20.463L10.2317 17.6543C9.4716 16.895 8.97876 15.9094 8.82737 14.8457H4.86719Z" fill="#9CEBFF"/>
<path d="M19.4874 7.58538C18.0416 6.3216 16.2213 5.56683 14.3054 5.43677V9.35482C15.1811 9.45525 16.0121 9.79542 16.7068 10.3378L19.4874 7.58538Z" fill="#32BEDD"/>
<path d="M7.88696 7.58538L10.6956 10.394C11.3903 9.85159 12.2213 9.51143 13.097 9.411V5.43677C11.1713 5.56078 9.34024 6.31593 7.88696 7.58538V7.58538Z" fill="#32BEDD"/>
<path d="M17.5911 11.2085C18.1271 11.9084 18.4708 12.7362 18.5881 13.6099H22.5062C22.3794 11.7017 21.6238 9.88928 20.3576 8.45605L17.5911 11.2085Z" fill="#32BEDD"/>
<path d="M9.78231 11.2085L6.97367 8.3999C5.71125 9.85375 4.96996 11.6872 4.86719 13.6099H8.78524C8.90255 12.7362 9.24627 11.9084 9.78231 11.2085V11.2085Z" fill="#50E6FF"/>
<path d="M20.9054 11.4193C20.8429 11.2689 20.7247 11.1484 20.5756 11.083C20.4265 11.0176 20.2579 11.0123 20.1049 11.0682L14.3191 13.3993L14.7685 14.5368L20.5543 12.2478C20.6333 12.2186 20.7056 12.1734 20.7665 12.1152C20.8275 12.057 20.8759 11.987 20.9088 11.9094C20.9417 11.8318 20.9583 11.7482 20.9578 11.664C20.9572 11.5797 20.9393 11.4964 20.9054 11.4193V11.4193Z" fill="#F04049"/>
<path d="M13.6869 15.9131C14.6176 15.9131 15.3721 15.1586 15.3721 14.2279C15.3721 13.2972 14.6176 12.5427 13.6869 12.5427C12.7562 12.5427 12.0017 13.2972 12.0017 14.2279C12.0017 15.1586 12.7562 15.9131 13.6869 15.9131Z" fill="url(#paint1_radial_2249_22226)"/>
<defs>
<radialGradient id="paint0_radial_2249_22226" cx="0" cy="0" r="1" gradientUnits="userSpaceOnUse" gradientTransform="translate(13.6968 14.2763) scale(11.9426 11.9426)">
<stop offset="0.18" stop-color="#5EA0EF"/>
<stop offset="0.56" stop-color="#5C9FEE"/>
<stop offset="0.69" stop-color="#559CED"/>
<stop offset="0.78" stop-color="#4A97E9"/>
<stop offset="0.86" stop-color="#3990E4"/>
<stop offset="0.93" stop-color="#2387DE"/>
<stop offset="0.99" stop-color="#087BD6"/>
<stop offset="1" stop-color="#0078D4"/>
</radialGradient>
<radialGradient id="paint1_radial_2249_22226" cx="0" cy="0" r="1" gradientUnits="userSpaceOnUse" gradientTransform="translate(13.6883 11.6517) scale(3.60208)">
<stop offset="0.19" stop-color="#8C8E90"/>
<stop offset="0.35" stop-color="#848688"/>
<stop offset="0.6" stop-color="#6E7071"/>
<stop offset="0.91" stop-color="#4A4B4C"/>
<stop offset="1" stop-color="#3E3F3F"/>
</radialGradient>
</defs>
</svg>
