<svg width="28" height="28" viewBox="0 0 28 28" fill="none" xmlns="http://www.w3.org/2000/svg">
<g clip-path="url(#clip0_2249_22245)">
<path d="M9.02213 1.89771L4.57324 2.72215V8.78882L9.02213 9.73771L13.4866 7.94882V3.42215L9.02213 1.89771Z" fill="url(#paint0_linear_2249_22245)"/>
<path d="M4.57324 2.72218V8.78885L9.0688 9.73774V1.95996L4.57324 2.72218ZM6.47102 8.32218L5.21102 8.07329V3.40663L6.47102 3.20441V8.32218ZM8.43102 8.67996L6.98435 8.44663V3.11107L8.43102 2.86218V8.67996Z" fill="#341A6E"/>
<path d="M18.651 1.97559L14.2021 2.80003V8.8667L18.651 9.81559L23.0999 8.01114V3.50003L18.651 1.97559Z" fill="url(#paint1_linear_2249_22245)"/>
<path d="M14.2021 2.80006V8.86673L18.6666 9.81562V2.03784L14.2021 2.80006ZM16.0844 8.40006L14.8244 8.15117V3.48451L16.0844 3.28229V8.40006ZM18.0444 8.75784L16.5977 8.52451V3.18895L18.0444 2.92451V8.75784Z" fill="#341A6E"/>
<path d="M4.46427 10.2666L0.0153809 11.091V17.1577L4.46427 18.1066L8.92871 16.3177V11.791L4.46427 10.2666Z" fill="url(#paint2_linear_2249_22245)"/>
<path d="M0 11.0911V17.1111L4.49556 18.06V10.2822L0 11.0911ZM1.88222 16.7067L0.622222 16.4422V11.7756L1.88222 11.5578V16.7067ZM3.85778 17.1111L2.41111 16.8778V11.48L3.85778 11.2311V17.1111Z" fill="#341A6E"/>
<path d="M14.0624 10.2043L9.61353 11.0288V17.0955L14.0624 18.0599L18.5113 16.2555V11.7288L14.0624 10.2043Z" fill="url(#paint3_linear_2249_22245)"/>
<path d="M9.61353 11.0289V17.1111L14.0935 18.06V10.2822L9.61353 11.0289ZM11.4957 16.6444L10.2357 16.38V11.7133L11.4957 11.4956V16.6444ZM13.4557 16.9867L12.0091 16.7533V11.4178L13.4557 11.1689V16.9867Z" fill="#341A6E"/>
<path d="M23.6601 10.2822L19.2112 11.1067V17.1733L23.6601 18.1222L28.1245 16.3333V11.8067L23.6601 10.2822Z" fill="url(#paint4_linear_2249_22245)"/>
<path d="M19.2112 11.1067V17.1111L23.7067 18.06V10.2822L19.2112 11.1067ZM21.109 16.7222L19.849 16.4578V11.7911L21.109 11.5733V16.7222ZM23.069 17.0644L21.6223 16.8311V11.4956L23.069 11.2467V17.0644Z" fill="#341A6E"/>
<path d="M8.91324 18.729L4.46436 19.5379V25.6046L8.91324 26.569L13.3777 24.7646V20.2534L8.91324 18.729Z" fill="url(#paint5_linear_2249_22245)"/>
<path d="M4.46436 19.5379V25.6045L8.95991 26.569V18.6667L4.46436 19.5379ZM6.36213 25.1534L5.10213 24.889V20.2223L6.36213 20.0045V25.1534ZM8.32213 25.5112L6.87547 25.2779V19.9267L8.32213 19.6779V25.5112Z" fill="#341A6E"/>
<path d="M18.527 18.791L14.0781 19.6155V25.6821L18.527 26.631L22.9915 24.8421V20.3155L18.527 18.791Z" fill="url(#paint6_linear_2249_22245)"/>
<path d="M14.0781 19.6155V25.6822L18.5737 26.6311V18.8533L14.0781 19.6155ZM15.9759 25.231L14.7159 24.9666V20.2999L15.9759 20.0822V25.231ZM17.9359 25.5733L16.4892 25.3399V20.0044L17.9359 19.7555V25.5733Z" fill="#341A6E"/>
</g>
<defs>
<linearGradient id="paint0_linear_2249_22245" x1="4.57324" y1="5.81771" x2="13.4866" y2="5.81771" gradientUnits="userSpaceOnUse">
<stop stop-color="#B77AF4"/>
<stop offset="1" stop-color="#773ADC"/>
</linearGradient>
<linearGradient id="paint1_linear_2249_22245" x1="14.2021" y1="5.89559" x2="23.0999" y2="5.89559" gradientUnits="userSpaceOnUse">
<stop stop-color="#B77AF4"/>
<stop offset="1" stop-color="#773ADC"/>
</linearGradient>
<linearGradient id="paint2_linear_2249_22245" x1="0.0153809" y1="14.1866" x2="8.91316" y2="14.1866" gradientUnits="userSpaceOnUse">
<stop stop-color="#B77AF4"/>
<stop offset="1" stop-color="#773ADC"/>
</linearGradient>
<linearGradient id="paint3_linear_2249_22245" x1="9.61353" y1="14.1243" x2="18.5113" y2="14.1243" gradientUnits="userSpaceOnUse">
<stop stop-color="#B77AF4"/>
<stop offset="1" stop-color="#773ADC"/>
</linearGradient>
<linearGradient id="paint4_linear_2249_22245" x1="19.2112" y1="14.2022" x2="28.1245" y2="14.2022" gradientUnits="userSpaceOnUse">
<stop stop-color="#B77AF4"/>
<stop offset="1" stop-color="#773ADC"/>
</linearGradient>
<linearGradient id="paint5_linear_2249_22245" x1="4.46436" y1="22.649" x2="13.3777" y2="22.649" gradientUnits="userSpaceOnUse">
<stop stop-color="#B77AF4"/>
<stop offset="1" stop-color="#773ADC"/>
</linearGradient>
<linearGradient id="paint6_linear_2249_22245" x1="14.0781" y1="22.711" x2="22.9915" y2="22.711" gradientUnits="userSpaceOnUse">
<stop stop-color="#B77AF4"/>
<stop offset="1" stop-color="#773ADC"/>
</linearGradient>
<clipPath id="clip0_2249_22245">
<rect width="28" height="28" fill="white"/>
</clipPath>
</defs>
</svg>
