<svg width="28" height="28" viewBox="0 0 28 28" fill="none" xmlns="http://www.w3.org/2000/svg">
<g clip-path="url(#clip0_2247_6849)">
<mask id="mask0_2247_6849" style="mask-type:luminance" maskUnits="userSpaceOnUse" x="0" y="-1" width="29" height="29">
<path d="M28.0002 -0.000244141H0V28H28.0002V-0.000244141Z" fill="white"/>
</mask>
<g mask="url(#mask0_2247_6849)">
<path fill-rule="evenodd" clip-rule="evenodd" d="M1.14684 19.3191L0.736755 20.82C0.583921 21.3002 0.369835 22.0054 0.254335 22.633C0.089834 23.067 0 23.5378 0 24.0295C0 26.0572 1.53184 27.7267 3.50119 27.9449C4.05536 28.0249 4.68245 28.0207 5.38537 27.9175L8.61472 27.4719C9.42674 27.3599 10.0935 26.7736 10.3093 25.9826L12.5318 17.8193L1.14684 19.3191Z" fill="url(#paint0_linear_2247_6849)"/>
<path d="M4.29695 19.7057C0.893174 20.2331 0.194336 22.8016 0.194336 22.8016L3.45402 10.8244L20.4869 8.52026L18.164 16.9571C18.0433 17.4092 17.6635 17.7557 17.1928 17.8274L17.0977 17.8432L4.20128 19.7221L4.29695 19.7057Z" fill="url(#paint1_linear_2247_6849)"/>
<path d="M4.29695 19.7057C0.893174 20.2331 0.194336 22.8016 0.194336 22.8016L3.45402 10.8244L20.4869 8.52026L18.164 16.9571C18.0433 17.4092 17.6635 17.7557 17.1928 17.8274L17.0977 17.8432L4.20128 19.7221L4.29695 19.7057Z" fill="url(#paint2_linear_2247_6849)" fill-opacity="0.8"/>
<path d="M6.22851 12.0639L25.0849 9.27842C25.5335 9.21717 25.8969 8.88875 26.0113 8.45883L27.9573 1.41619C27.9841 1.32052 27.9981 1.21961 27.9981 1.11577C27.9981 0.499188 27.4988 -0.000732422 26.8816 -0.000732422C26.8338 -0.000732422 26.7859 0.00218426 26.7398 0.00801763L8.74736 2.66687C6.79318 2.9807 5.21526 4.42214 4.70309 6.30223L2.1084 15.7062C2.62932 13.8039 2.94957 12.6571 6.22851 12.0639Z" fill="url(#paint3_linear_2247_6849)"/>
<path d="M6.22851 12.0639L25.0849 9.27842C25.5335 9.21717 25.8969 8.88875 26.0113 8.45883L27.9573 1.41619C27.9841 1.32052 27.9981 1.21961 27.9981 1.11577C27.9981 0.499188 27.4988 -0.000732422 26.8816 -0.000732422C26.8338 -0.000732422 26.7859 0.00218426 26.7398 0.00801763L8.74736 2.66687C6.79318 2.9807 5.21526 4.42214 4.70309 6.30223L2.1084 15.7062C2.62932 13.8039 2.94957 12.6571 6.22851 12.0639Z" fill="url(#paint4_linear_2247_6849)"/>
<path d="M6.22851 12.0639L25.0849 9.27842C25.5335 9.21717 25.8969 8.88875 26.0113 8.45883L27.9573 1.41619C27.9841 1.32052 27.9981 1.21961 27.9981 1.11577C27.9981 0.499188 27.4988 -0.000732422 26.8816 -0.000732422C26.8338 -0.000732422 26.7859 0.00218426 26.7398 0.00801763L8.74736 2.66687C6.79318 2.9807 5.21526 4.42214 4.70309 6.30223L2.1084 15.7062C2.62932 13.8039 2.94957 12.6571 6.22851 12.0639Z" fill="url(#paint5_linear_2247_6849)" fill-opacity="0.4"/>
<path d="M6.22837 12.064C3.49777 12.5582 2.81994 13.4378 2.36843 14.8162L0.194336 22.8027C0.194336 22.8027 0.88909 20.2599 4.25145 19.7163L17.0983 17.8449L17.1933 17.8292C17.6641 17.7574 18.0438 17.4104 18.1646 16.9589L20.0757 10.0183L6.22896 12.064H6.22837Z" fill="url(#paint6_linear_2247_6849)"/>
<path d="M6.22837 12.064C3.49777 12.5582 2.81994 13.4378 2.36843 14.8162L0.194336 22.8027C0.194336 22.8027 0.88909 20.2599 4.25145 19.7163L17.0983 17.8449L17.1933 17.8292C17.6641 17.7574 18.0438 17.4104 18.1646 16.9589L20.0757 10.0183L6.22896 12.064H6.22837Z" fill="url(#paint7_linear_2247_6849)" fill-opacity="0.2"/>
<path fill-rule="evenodd" clip-rule="evenodd" d="M4.25136 19.7164C1.40993 20.1761 0.476586 22.0579 0.254335 22.6314C0.0898339 23.0666 0 23.5373 0 24.0291C0 26.0568 1.53184 27.7263 3.50119 27.9444C4.05536 28.0243 4.68245 28.0203 5.38537 27.917L8.61472 27.4713C9.42672 27.3593 10.0935 26.7731 10.3093 25.9821L12.3353 18.5393L4.25194 19.7171L4.25136 19.7164Z" fill="url(#paint8_linear_2247_6849)"/>
</g>
</g>
<defs>
<linearGradient id="paint0_linear_2247_6849" x1="6.26562" y1="28.0004" x2="6.26562" y2="17.8193" gradientUnits="userSpaceOnUse">
<stop offset="0.056" stop-color="#2AAC94"/>
<stop offset="0.155" stop-color="#239C87"/>
<stop offset="0.372" stop-color="#177E71"/>
<stop offset="0.588" stop-color="#0E6961"/>
<stop offset="0.799" stop-color="#095D57"/>
<stop offset="1" stop-color="#085954"/>
</linearGradient>
<linearGradient id="paint1_linear_2247_6849" x1="19.1308" y1="20.613" x2="9.29965" y2="9.92027" gradientUnits="userSpaceOnUse">
<stop offset="0.0417478" stop-color="#ABE88E"/>
<stop offset="0.548926" stop-color="#2AAA92"/>
<stop offset="0.906" stop-color="#117865"/>
</linearGradient>
<linearGradient id="paint2_linear_2247_6849" x1="-5.02852" y1="20.0931" x2="4.32724" y2="16.9026" gradientUnits="userSpaceOnUse">
<stop stop-color="#6AD6F9"/>
<stop offset="1" stop-color="#6AD6F9" stop-opacity="0"/>
</linearGradient>
<linearGradient id="paint3_linear_2247_6849" x1="2.1084" y1="7.85274" x2="27.0116" y2="7.85274" gradientUnits="userSpaceOnUse">
<stop offset="0.043" stop-color="#25FFD4"/>
<stop offset="0.874" stop-color="#55DDB9"/>
</linearGradient>
<linearGradient id="paint4_linear_2247_6849" x1="2.1084" y1="4.37195" x2="24.5413" y2="14.7887" gradientUnits="userSpaceOnUse">
<stop stop-color="#6AD6F9"/>
<stop offset="0.229501" stop-color="#60E9D0"/>
<stop offset="0.650711" stop-color="#6DE9BB"/>
<stop offset="0.99354" stop-color="#ABE88E"/>
</linearGradient>
<linearGradient id="paint5_linear_2247_6849" x1="4.18369" y1="6.32124" x2="16.3817" y2="9.01911" gradientUnits="userSpaceOnUse">
<stop stop-color="white" stop-opacity="0"/>
<stop offset="0.458511" stop-color="white"/>
<stop offset="1" stop-color="white" stop-opacity="0"/>
</linearGradient>
<linearGradient id="paint6_linear_2247_6849" x1="8.22825" y1="16.7708" x2="8.51648" y2="8.21658" gradientUnits="userSpaceOnUse">
<stop offset="0.204642" stop-color="#063D3B" stop-opacity="0"/>
<stop offset="0.58553" stop-color="#063D3B" stop-opacity="0.236587"/>
<stop offset="0.872285" stop-color="#063D3B" stop-opacity="0.75"/>
</linearGradient>
<linearGradient id="paint7_linear_2247_6849" x1="-0.834146" y1="15.92" x2="9.58989" y2="17.8805" gradientUnits="userSpaceOnUse">
<stop stop-color="white" stop-opacity="0"/>
<stop offset="0.458511" stop-color="white"/>
<stop offset="1" stop-color="white" stop-opacity="0"/>
</linearGradient>
<linearGradient id="paint8_linear_2247_6849" x1="6.69554" y1="25.1788" x2="4.6622" y2="15.2341" gradientUnits="userSpaceOnUse">
<stop offset="0.064" stop-color="#063D3B" stop-opacity="0"/>
<stop offset="0.17" stop-color="#063D3B" stop-opacity="0.135"/>
<stop offset="0.562" stop-color="#063D3B" stop-opacity="0.599"/>
<stop offset="0.85" stop-color="#063D3B" stop-opacity="0.9"/>
<stop offset="1" stop-color="#063D3B"/>
</linearGradient>
<clipPath id="clip0_2247_6849">
<rect width="28" height="28" fill="white"/>
</clipPath>
</defs>
</svg>
