<svg width="28" height="28" viewBox="0 0 28 28" fill="none" xmlns="http://www.w3.org/2000/svg">
<path d="M25.0179 13.1258C25.0179 20.2363 16.2664 25.9592 14.3624 27.1258C14.2531 27.1922 14.1278 27.2272 13.9999 27.2272C13.8721 27.2272 13.7468 27.1922 13.6375 27.1258C11.7335 25.9638 2.98193 20.2409 2.98193 13.1258V4.57028C2.98273 4.3909 3.05392 4.219 3.18018 4.09157C3.30644 3.96415 3.47768 3.89139 3.65704 3.88894C10.4657 3.71161 8.89771 0.777832 13.9999 0.777832C19.1022 0.777832 17.5342 3.71161 24.3428 3.88894C24.5214 3.89137 24.6919 3.96349 24.8181 4.08991C24.9442 4.21633 25.0159 4.38704 25.0179 4.56561V13.1258Z" fill="#76BC2D"/>
<path d="M24.1111 13.199C24.1111 19.7183 16.0845 24.9683 14.3391 26.0323C14.2388 26.0933 14.1237 26.1255 14.0062 26.1255C13.8888 26.1255 13.7737 26.0933 13.6734 26.0323C11.9218 24.9683 3.88892 19.7183 3.88892 13.199V5.35273C3.88892 5.18771 3.95447 5.02945 4.07116 4.91276C4.18785 4.79607 4.34611 4.73051 4.51114 4.73051C10.7582 4.56562 9.32092 1.87451 14 1.87451C18.6791 1.87451 17.2418 4.56562 23.4889 4.73207C23.6539 4.73207 23.8122 4.79762 23.9289 4.91431C24.0456 5.031 24.1111 5.18927 24.1111 5.35429V13.199Z" fill="url(#paint0_linear_2249_22238)"/>
<path d="M18.438 11.9157H17.8034V9.71143C17.8088 8.66958 17.4198 7.66428 16.7145 6.89743C16.3708 6.52092 15.9524 6.22018 15.4859 6.01442C15.0195 5.80866 14.5153 5.70239 14.0055 5.70239C13.4957 5.70239 12.9915 5.80866 12.525 6.01442C12.0586 6.22018 11.6402 6.52092 11.2965 6.89743C10.5853 7.65998 10.1953 8.66724 10.2076 9.70987V11.9157H9.56204C9.42939 11.9164 9.30225 11.9688 9.20759 12.0617C9.11292 12.1547 9.05816 12.2808 9.05493 12.4134V18.141C9.05855 18.2735 9.11343 18.3994 9.20801 18.4922C9.3026 18.5851 9.42951 18.6376 9.56204 18.6388H18.438C18.5706 18.6376 18.6975 18.5851 18.7921 18.4922C18.8867 18.3994 18.9415 18.2735 18.9452 18.141V12.4134C18.9419 12.2808 18.8872 12.1547 18.7925 12.0617C18.6978 11.9688 18.5707 11.9164 18.438 11.9157ZM16.0285 11.9157H11.9778V9.6741C11.9834 9.09764 12.212 8.54573 12.6156 8.1341C12.7907 7.93856 13.005 7.78214 13.2447 7.67505C13.4843 7.56797 13.7438 7.51262 14.0063 7.51262C14.2687 7.51262 14.5282 7.56797 14.7679 7.67505C15.0075 7.78214 15.2218 7.93856 15.3969 8.1341C15.4855 8.23041 15.5651 8.33454 15.6349 8.44521C15.8864 8.80714 16.026 9.23503 16.0363 9.67565L16.0285 11.9157Z" fill="white"/>
<path opacity="0.15" d="M9.56351 11.9126H18.438C18.5581 11.9143 18.6738 11.9584 18.7646 12.037L9.23684 18.5113C9.18094 18.466 9.13576 18.4089 9.10456 18.3441C9.07336 18.2792 9.05691 18.2083 9.0564 18.1364V12.4119C9.05923 12.279 9.11381 12.1525 9.20852 12.0593C9.30323 11.966 9.43059 11.9134 9.56351 11.9126Z" fill="#B3B3B3"/>
<path opacity="0.09" d="M18.4379 11.9126H9.56193C9.44232 11.9147 9.32725 11.9587 9.23682 12.037L18.763 18.5113C18.8191 18.4661 18.8646 18.409 18.896 18.3442C18.9275 18.2794 18.9442 18.2084 18.945 18.1364V12.4119C18.9418 12.2792 18.8871 12.1529 18.7925 12.0597C18.6979 11.9665 18.5707 11.9138 18.4379 11.9126Z" fill="#A3A3A3"/>
<defs>
<linearGradient id="paint0_linear_2249_22238" x1="14" y1="26.1256" x2="14" y2="1.87451" gradientUnits="userSpaceOnUse">
<stop stop-color="#5E9624"/>
<stop offset="0.321" stop-color="#639D26"/>
<stop offset="0.794" stop-color="#6FB12A"/>
<stop offset="0.999" stop-color="#76BC2D"/>
</linearGradient>
</defs>
</svg>
